<?xml version="1.0" encoding="utf-8"?>
<!-- Generator: Adobe Illustrator 21.1.0, SVG Export Plug-In . SVG Version: 6.00 Build 0)  -->
<svg version="1.2" baseProfile="tiny" id="Layer_1" xmlns="http://www.w3.org/2000/svg" xmlns:xlink="http://www.w3.org/1999/xlink"
	 x="0px" y="0px" viewBox="0 0 318 499.1" overflow="auto" xml:space="preserve">
<rect x="-0.1" y="-0.3" fill="#CB8C84" width="317.9" height="499"/>
<g>
	<path fill="#B08874" d="M24.2,215.1c2.8,8.1,13.1,15.4,18.5,22c6.6,8.2,12.7,16.8,16.8,26.5c8.3,19.4,1.7,37.3-3.3,56.5
		c-2.7,10.4-6.4,20.7-9.1,31.1c-1.4,5.3-9.6,25.9-5.6,29.8c2.1-2,3-5,3.8-7.8c5.4-17,10.2-34.5,16.8-51.1
		c5.5-13.8,10.1-33.7,5.3-48.2c-2.7-13.1-10.3-24.6-18.2-35.2C45.2,233.4,33,209.4,24.2,215.1z"/>
	<path fill="#F5E0CD" d="M23.8,214.9c-2.5-10.2-1-20.3,5.5-28.7c9.1-11.7,26-17.7,39.8-19.6c5.2-0.7,15.6,61.7,16.8,67.5
		c4.9,24,9.5,48.1,13.3,72.3c1.9,12.1,3.6,24.3,5.1,36.4c4.5,37-2.2,29.4-22.3,62.6c-2.7,4.5-5.7,8.1-10.1,11.1
		c-9.3,6.4-28.9,3.1-31.8-8.6c-7.5-30.6,14.9-61.4,22.9-90c3.8-13.5,5.9-27.8,4.2-41.8c-2.6-21.3-21-39.9-33-56.7
		c-1.3-1.8-2.6-3.7-4.6-4.7C27.8,213.7,25.6,213.9,23.8,214.9z"/>
	<path fill="#F7F6F4" d="M73.4,165.7c0,0,0-0.1-0.1-0.1c1.2,3.1,2.8-5.5,7.7-8.1c-2.6-8,1.8-17.1,3.1-25.2c2-12.7-1-26.6-1.9-39.3
		c-2.2-30.7-4.1-61.3-6-92C87.1,1.1,98,1.2,108.9,1.3C119.5,25,131.6,49,141,73.1c8.6,22,17.1,44.3,20.9,67.7
		c2.3,14,2.9,28.3,1.8,42.4c-1.1,14.3-1.4,28.6-3.3,42.8c-4.6,34.8-15.6,68.8-32.4,99.6c-4.7,8.7-10.8,19.2-17.7,26.3
		c-2.8-12.1-3.5-25.7-4.2-38.3C97,263.7,92,213.4,73.4,165.7z"/>
	<path fill="#F5E0CD" d="M84.4,130.3c0.3-0.2,0.8-0.4,1.2-0.4c2.4-0.2,4.8-0.4,7.2-0.4c15.1-0.5,30.8-0.7,46,1
		c3.8,0.4,7.6,1.1,11.3,1.9c4.4,1,10,0.7,12.5,5.1c0.8,4.8,1.3,9.7,1.6,14.6c0.1,2.4,0.2,4.9,0.2,7.3c0,1.4,0.8,4-0.2,5.1
		c-1.1,1.3-3.7,0.5-5,0.1c-16.6-4.9-33.3-9-49.8-14.1c-6.2-1.9-12.3-3.9-18.5-5.7c-3-0.9-5.7-2.6-8.9-2.8c0.8-3.4,1.3-6.6,1.7-10
		c0-0.4,0.1-0.8,0.3-1.2C84,130.5,84.2,130.4,84.4,130.3z"/>
	<path fill="#F5E0CD" d="M81.7,157.2c3,5.6,10.5,7.9,16.2,10.7c7.2,3.5,14.4,7,21.7,10.5c7.2,3.5,14.4,7,21.7,10.5
		c6.9,3.4,14,7.8,21.3,10.2c1.6-3.8,1.6-10.3,1.7-14.5c0.3-10,2.2-8.8-7-16c-5.8-4.6-12.5-7.9-19.4-10.3c-8.6-3-17.6-6-26.4-8.2
		c-13.1-3.4-19.5-6.8-23.8-8.1c-1.5-0.5-4.4-1.7-5.7-0.3c-0.7,0.7-0.8,2.8-1,3.7c-0.5,2.2-0.9,4.5-0.7,6.8
		C80.4,154.1,80.9,155.7,81.7,157.2z"/>
	<path fill="#F5E0CD" d="M86.9,214.1c10.6-3.8,24.4-4.9,35.4-7.1c6.3-1.3,12.5-2.5,18.8-3.8c3.4-0.7,18.5-7,21.4-4.2
		c1.4,1.4,0.1,10.4,0,12.3c-0.2,3.4,0.3,11.7-2,14.3c-1.7,1.8-8.9,2.5-11.2,3.2c-5.1,1.6-10.2,2.2-15.3,3.6
		c-12.5,3.4-27.8,7.6-40.8,7c-2.5-0.2-4.6-22.3-5.3-25.2C87.9,214.1,86.9,214.1,86.9,214.1z"/>
	<path fill="#F7F6F4" d="M108.9,1.3l105-0.8c0.7,12,1.5,24,2.2,36c0.6,9.9,1.2,19.9,1.8,29.8c0.9,14.1,1.2,27.4,4.6,41.2
		c6,24,16.2,47.1,25.2,69.4c2.1,5.2,4.6,10.3,5.9,15.7c1.3,5.4,2.5,10.8,4,16.1c3,10.9,5.9,21.9,8,33c4.1,21.9,3.6,44.6-2.9,66
		c-3,10-7.3,19.6-12.8,28.4c-2.6,4.2-5.6,9.6-9.3,13c-1.1,0.9-6.9,4.8-8.3,4.3c-4.7-3.7-9.8-7.2-14.4-11
		c-6.3-5.2-11.2-13.6-15.1-20.7c-8.6-15.5-12.8-32.9-14.5-50.4c-1.6-17.1,1.5-34.8-4.8-51c-7.6-19.7-10-40.7-14.7-61.1
		c-9.4-41.2-27-79.7-42.8-118.7c-0.1-0.2-0.2-0.4-0.2-0.6L108.9,1.3z"/>
	<path fill="#F5E0CD" d="M190.2,234.3c-5.7,5-4.4,14.7-5.2,23.9c-2.4,25.8-1.6,51.7,1.9,77.4c2.4,17.4,5.9,34.6,10.6,51.6
		c3,11.1,5.4,37.3,20.2,36.5c8.1-0.4,16.3-0.8,24.4-1.3c7.5-0.4,16.9,1.4,20.8-4.6c3.9-5.9,4.7-17,6.3-23.9
		c1.9-8.6,3.4-17.2,4.6-25.9c4.8-34.6,4.5-70.7-2.7-105.3c-1.8-8.6-4-17.1-6.5-25.5c-3.1-10.3-3.1-12.8-14-12.7
		c-17.5,0.1-34.5,4.6-51.8,6.5C194.8,231.5,192.1,232.7,190.2,234.3z"/>
	<path fill="#FFECE3" d="M183.5,267c-0.1,3.5,0.4,6.6,0.8,10.3c2.1,21,4.8,43.4,17.7,60.9c7.4,10.1,17.8,18.4,28.2,25.2
		c4.2,2.8,5.9,1.8,9.7-1.3c3.6-3,6.7-6.5,9.8-10c7.3-8.2,14.7-16.6,18.9-26.7c5.4-12.7,5.9-27,5.2-40.6c-0.4-7-1.1-13.9-2-20.8
		c-0.4-3.2-0.7-6.1-1.8-9.1c-0.7-1.9-1.8-3.8-2.7-5.6c0,8.6,2.6,17.1,2.2,25.7c-0.8,16.1-4.5,32.6-11.4,47.4
		c-3.6,7.6-8,14.7-13.4,21.1c-3.5,4.1-8.5,10.7-14.8,8.3c-2-0.7-3.6-2.1-5.2-3.5c-28.7-25.4-39.8-63.9-38.3-101.3
		c-1.3,5.4-1.9,11-2.7,16.5C183.6,264.8,183.5,265.9,183.5,267z"/>
	<path fill="#F5E0CD" d="M159.1,124.1c0.7-1.5,15.5-8.3,17-9.1c5.9-3,12-5.8,18.2-8.2c6-2.3,12.1-4.4,18.3-6.1
		c2.4-0.7,6.8-2.4,8.5-0.9s2.5,8.7,3.1,11.1c1.5,5.2,5,12.2,5,17.6c0,2-0.3,1.6-2.2,2.6c-1.8,0.9-6,0.3-8,0.5
		c-5.5,0.6-11,1.6-16.4,3c-7,1.9-13.9,4.4-20.4,7.6c-2.1,1-14.3,10.7-14.6,11.1c-2.9-9.7-6-19.3-8.5-29.1
		C159,124.2,159.1,124.2,159.1,124.1z"/>
	<path fill="#F5E0CD" d="M171.6,150c20.3,7.1,40.6,14.3,60.9,21.4c2.8,1,5.4,2.3,8.2,3.1c3.1,0.8,6.8,1.2,8.9,4
		c1,1.4,1.5,3.1,1.9,4.7c2,8.4,4.1,16.8,6.2,25.2L173.2,180l-5.7-26.7C167.6,153.3,171.6,150,171.6,150z"/>
	<path fill="#F5E0CD" d="M224.2,131.9c-2.6,1.5-5.2,4.5-6.7,6.2c-17.2,18.6-28.8,40-41,61.9l9.8,32.5c-0.4-1.4,3.4-7.1,4-8.5
		c1.6-3.5,3.3-6.9,5.1-10.2c11.5-21.2,28.1-38.9,44.2-56.7c1.9-2-5.3-14.5-6.2-16.5c-1.1-2.4-1.2-7.8-3-9.7
		C226.7,127.1,231.1,127.8,224.2,131.9z"/>
	<path fill="#F7F6F4" d="M186.4,247.1c0.1-6.8,0.9-14,8-17.1c6.6-2.9,16.6-2.4,23.8-3.4s14.3-1.7,21.5-3.1c5.1-1,10.5-1.8,15.5-0.2
		c10.5,3.4,11.1,19.2,12.4,28.4c2.6,17.4,2.1,33.9-2.7,50.7c-4.5,15.5-10.6,30.4-21.3,42.7c-3.2,3.7-7.6,7.4-12.4,6.5
		c-2.5-0.5-4.6-2.2-6.6-3.9C195.6,321.9,186,284.5,186.4,247.1z"/>
	<path fill="#FFECE3" d="M69.3,168.8c-0.7-2.7,3.5-5.2,5.9-4.3c1.8,0.7,2,5.6,2.4,7.4c0,2.2,1.1,5,1.6,7.2c0.6,2.4,1.2,4.7,2,7.1
		c1.6,5,3.1,10.1,4.6,15.1c4.3,14.8,8.1,29.8,11.4,44.9c6.5,29.5,11.1,60.2,13.7,90.3c0.6,6.6-0.5,26.6-5.6,31.7
		c-2.9-3-1.4-21.9-1.9-26.3c-0.8-7.6-1.7-15.2-2.6-22.8c-1.9-14.8-4.1-29.6-6.7-44.3C87.8,239.1,78.5,204,69.3,168.8z"/>
</g>
<g id="Layer_2">
</g>
</svg>
