<?xml version="1.0" encoding="utf-8"?>
<!-- Generator: Adobe Illustrator 21.1.0, SVG Export Plug-In . SVG Version: 6.00 Build 0)  -->
<svg version="1.2" baseProfile="tiny" id="Layer_1" xmlns="http://www.w3.org/2000/svg" xmlns:xlink="http://www.w3.org/1999/xlink"
	 x="0px" y="0px" viewBox="0 0 400 200" xml:space="preserve">
<g>
	<path fill="none" stroke="#000000" stroke-miterlimit="10" d="M284.9,203.3"/>
	<path fill="none" stroke="#000000" stroke-miterlimit="10" d="M284.3,2.3"/>
</g>
<rect x="93" y="-0.8" fill="#CCCCCC" width="216" height="200.8"/>
<g>
	<g>
		<path fill="none" stroke="#000000" stroke-miterlimit="10" d="M204.8,201.8"/>
		<path fill="none" stroke="#000000" stroke-miterlimit="10" d="M204.2,2.2"/>
		<polygon fill="#666666" points="212.8,94.2 229,114.5 214.6,112.5 210.4,94.5 		"/>
		<path fill="#808080" d="M244.6,51.4h-20.8v-2.3c0-1.4,1.1-2.5,2.5-2.5h15.8c1.4,0,2.5,1.1,2.5,2.5V51.4z"/>
		<path fill="#4D4D4D" d="M204.1,51.2h36.7c9.5,0,20.3,4.6,22,14c0,0.2,0.1,0.3,0.2,0.4c0.9,3.1,10.5,36.2,10.5,36.2
			c4,18.5,13.2,45.8-3.3,50.3c-16.5,4.4-35.4-14.2-45.7-28.4c-8.3-11.6-2.9-9-5.6-17c-3.6-10.8,10.1,12.5,6.3,6.3H178l0.5-61.9
			L204.1,51.2z"/>
		<ellipse fill="#808080" cx="221.5" cy="113.3" rx="16.7" ry="16.5"/>
		<circle fill="#B3B3B3" cx="221.6" cy="113.4" r="9.9"/>
		<ellipse fill="#808080" cx="238.7" cy="74.2" rx="18.4" ry="18.2"/>
	</g>
	<g>
		<path fill="none" stroke="#000000" stroke-miterlimit="10" d="M200.6,202.7"/>
		<path fill="none" stroke="#000000" stroke-miterlimit="10" d="M201.1,1.6"/>
		<polygon fill="#666666" points="192.6,94.2 176.4,114.8 190.8,112.8 195,94.6 		"/>
		<path fill="#808080" d="M183,51.4h-20.8v-2.3c0-1.4,1.1-2.5,2.5-2.5h15.8c1.4,0,2.5,1.1,2.5,2.5V51.4z"/>
		<path fill="#4D4D4D" d="M208.7,51.2l-45-0.2c-9.5,0-19,4.5-22,14.1c0,0.2-0.1,0.3-0.2,0.4C140.6,68.6,131,102,131,102
			c-4,18.7-13.2,46.2,3.3,50.7s35.4-14.3,45.7-28.7c8.3-11.7,5.7-14.1,8.3-22.2c3.6-10.9-12.9,17.7-9.1,11.4l15.5,1.5l2-56.5
			L208.7,51.2z"/>
		<circle fill="#808080" cx="183.9" cy="113.6" r="16.7"/>
		<circle fill="#808080" cx="165.6" cy="74.2" r="18.4"/>
		<circle fill="#B3B3B3" cx="165.9" cy="74.4" r="11"/>
		<circle fill="#808080" cx="202.5" cy="81" r="6.4"/>
	</g>
	<circle fill="#00A99D" cx="238.7" cy="65.8" r="4.6"/>
	<circle fill="#E0DC6E" cx="238.5" cy="82.3" r="4.6"/>
	<circle fill="#C1272D" cx="246.8" cy="74.2" r="4.6"/>
	<circle fill="#0A0A8C" cx="230.4" cy="73.9" r="4.6"/>
	<path fill="#B3B3B3" d="M184,123.9L184,123.9c-1.6,0-2.9-1.3-2.9-2.9v-15.8c0-1.6,1.3-2.9,2.9-2.9l0,0c1.6,0,2.9,1.3,2.9,2.9V121
		C186.9,122.6,185.6,123.9,184,123.9z"/>
	<path fill="#B3B3B3" d="M194.8,113.1L194.8,113.1c0,1.6-1.3,2.9-2.9,2.9h-15.8c-1.6,0-2.9-1.3-2.9-2.9l0,0c0-1.6,1.3-2.9,2.9-2.9
		h15.8C193.5,110.2,194.8,111.5,194.8,113.1z"/>
	<path fill="#808080" d="M193.5,65.1h-5.3c-0.6,0-1.1-0.5-1.1-1.1l0,0c0-0.6,0.5-1.1,1.1-1.1h5.3c0.6,0,1.1,0.5,1.1,1.1l0,0
		C194.6,64.6,194.1,65.1,193.5,65.1z"/>
	<path fill="#808080" d="M217.4,65.1H212c-0.6,0-1.1-0.5-1.1-1.1l0,0c0-0.6,0.5-1.1,1.1-1.1h5.3c0.6,0,1.1,0.5,1.1,1.1l0,0
		C218.5,64.6,218,65.1,217.4,65.1z"/>
</g>
</svg>
